<?xml version="1.0" standalone="no"?>
<!DOCTYPE svg PUBLIC "-//W3C//DTD SVG 20010904//EN"
 "http://www.w3.org/TR/2001/REC-SVG-20010904/DTD/svg10.dtd">
<svg version="1.0" xmlns="http://www.w3.org/2000/svg"
 width="176.000000pt" height="174.000000pt" viewBox="0 0 176.000000 174.000000"
 preserveAspectRatio="xMidYMid meet">

<g transform="translate(0.000000,174.000000) scale(0.100000,-0.100000)"
fill="#000000" stroke="none">
<path d="M405 1731 c-36 -15 -50 -42 -46 -93 2 -32 38 -58 79 -58 35 0 46 -8
125 -89 86 -88 87 -89 87 -140 l0 -51 -43 0 c-46 0 -69 -14 -60 -36 4 -12 65
-14 339 -14 l333 0 28 -24 28 -24 2 -339 c1 -328 2 -338 21 -341 21 -3 32 20
32 76 l0 32 106 0 c105 0 106 0 134 -30 31 -34 64 -38 98 -14 32 22 44 58 31
91 -21 57 -78 69 -127 28 -28 -23 -37 -25 -136 -25 l-106 0 0 25 c0 23 3 25
49 25 62 0 81 7 81 30 0 23 -19 30 -81 30 -46 0 -49 2 -49 25 l0 25 203 0
c111 0 208 4 216 9 8 5 11 16 8 25 -6 14 -33 16 -217 16 l-210 0 0 30 c0 29 1
29 63 32 56 3 62 5 65 26 3 21 0 22 -62 22 l-66 0 0 29 c0 28 2 29 60 33 l61
4 97 96 c89 89 100 96 129 91 25 -4 37 0 57 20 72 72 -27 182 -105 118 -18
-14 -24 -29 -24 -60 0 -39 -5 -47 -91 -131 -88 -87 -93 -90 -138 -90 l-46 0 0
37 c0 89 -62 153 -149 153 l-41 0 0 111 c0 106 1 113 25 135 33 31 33 77 0
109 -46 47 -118 23 -131 -42 -5 -27 -1 -37 25 -63 31 -31 31 -32 31 -141 l0
-109 -30 0 -30 0 0 64 c0 49 -4 65 -16 70 -27 10 -34 -3 -34 -70 l0 -64 -30 0
-30 0 0 214 c0 218 -2 231 -37 219 -10 -4 -13 -56 -13 -219 l0 -214 -30 0 -30
0 0 64 c0 67 -7 80 -34 70 -12 -5 -16 -21 -16 -70 l0 -64 -30 0 -30 0 0 61 0
62 -95 96 c-84 86 -95 101 -95 133 0 60 -54 100 -105 79z m50 -76 c0 -30 -39
-27 -43 3 -3 20 0 23 20 20 15 -2 23 -10 23 -23z m682 -41 c3 -8 -1 -22 -9
-30 -12 -12 -17 -12 -33 0 -16 12 -17 16 -6 30 17 20 40 21 48 0z m563 -270
c11 -12 10 -18 -3 -32 -16 -15 -18 -15 -34 0 -13 14 -14 20 -3 32 7 9 16 16
20 16 4 0 13 -7 20 -16z m-52 -688 c5 -24 -10 -38 -31 -30 -17 6 -23 35 -10
48 12 12 38 1 41 -18z"/>
<path d="M470 1201 c-5 -11 -10 -36 -10 -55 l0 -36 -110 0 c-93 0 -112 3 -117
16 -8 21 -59 42 -88 36 -58 -11 -81 -97 -36 -133 33 -27 82 -24 111 6 22 24
29 25 132 25 l108 0 0 -30 0 -30 -66 0 c-62 0 -65 -1 -62 -22 3 -21 9 -23 66
-26 61 -3 62 -3 62 -32 l0 -30 -210 0 c-184 0 -211 -2 -217 -16 -3 -9 0 -20 8
-25 8 -5 105 -9 217 -9 l202 0 0 -25 c0 -23 -3 -25 -49 -25 -62 0 -81 -7 -81
-30 0 -23 19 -30 81 -30 46 0 49 -2 49 -25 0 -22 -4 -25 -39 -25 -64 0 -91
-16 -188 -112 -63 -63 -96 -89 -107 -85 -21 8 -66 -9 -82 -31 -20 -25 -17 -66
7 -96 47 -60 148 -15 136 61 -5 30 1 38 84 118 76 72 95 85 124 85 18 0 40 3
49 6 13 5 16 -1 17 -32 1 -94 47 -146 139 -159 l50 -7 0 -107 c0 -102 -1 -109
-25 -131 -31 -29 -33 -77 -5 -108 20 -22 36 -26 75 -22 60 5 81 95 32 134 -26
21 -27 24 -27 129 l0 107 30 0 c29 0 29 -1 32 -62 3 -55 5 -63 23 -63 18 0 20
8 23 63 3 61 3 62 32 62 l30 0 2 -212 c3 -205 4 -213 23 -213 19 0 20 8 23
213 l2 212 30 0 c29 0 29 -1 32 -63 3 -54 5 -62 23 -62 18 0 20 8 23 63 3 61
3 62 32 62 29 0 30 -1 30 -53 0 -63 20 -95 124 -197 58 -56 66 -69 66 -101 0
-69 73 -101 125 -56 56 48 16 143 -56 135 -25 -2 -42 11 -119 87 -88 87 -90
91 -90 136 l0 47 48 7 c49 7 64 19 55 42 -4 10 -70 13 -343 13 l-338 0 -26 31
-27 31 1 322 c0 176 1 327 0 334 0 19 -28 14 -40 -7z m-285 -116 c0 -13 -8
-21 -22 -23 -19 -3 -23 1 -23 23 0 22 4 26 23 23 14 -2 22 -10 22 -23z m-52
-667 c7 -21 -4 -38 -23 -38 -23 0 -34 16 -26 35 7 18 43 20 49 3z m570 -270
c7 -21 -4 -38 -23 -38 -23 0 -34 16 -26 35 7 18 43 20 49 3z m672 -68 c0 -29
-32 -41 -41 -16 -9 24 4 48 23 44 12 -2 18 -12 18 -28z"/>
<path d="M783 1159 c-38 -11 -63 -43 -63 -81 0 -18 -6 -29 -20 -33 -10 -3 -31
-20 -45 -37 -24 -28 -26 -38 -21 -82 8 -67 8 -74 0 -118 -8 -50 0 -81 31 -109
13 -13 25 -32 25 -41 0 -10 12 -32 28 -48 35 -40 92 -49 142 -23 33 17 37 17
70 1 19 -10 46 -18 60 -18 35 0 88 35 102 67 7 16 25 43 40 61 31 37 38 104
14 137 -11 15 -11 22 0 44 31 60 1 148 -56 166 -14 4 -20 15 -20 36 0 66 -86
102 -157 67 -15 -7 -26 -8 -35 -1 -21 17 -61 21 -95 12z m85 -81 c7 -16 19
-28 27 -28 8 0 20 12 27 28 16 32 67 43 87 18 17 -20 7 -46 -18 -46 -20 0 -35
-25 -25 -41 3 -5 27 -9 55 -9 82 0 119 -64 64 -112 -14 -12 -25 -27 -25 -33 0
-6 11 -22 25 -35 24 -22 34 -68 18 -83 -3 -4 -16 2 -27 12 -31 29 -74 37 -82
16 -5 -11 4 -25 26 -44 27 -22 32 -32 26 -54 -12 -48 -72 -60 -110 -21 -12 12
-16 38 -16 114 0 95 1 99 26 119 15 12 35 21 45 21 12 0 19 7 19 20 0 27 -22
35 -60 22 -28 -10 -30 -9 -30 13 0 24 -16 36 -37 27 -9 -3 -13 -28 -13 -78 l0
-74 -30 0 c-23 0 -30 -4 -30 -20 0 -11 4 -20 8 -20 5 0 18 -9 30 -20 27 -25
31 -100 6 -124 -25 -26 -61 -30 -90 -11 -26 17 -28 32 -9 91 8 25 -20 41 -41
23 -20 -16 -34 -2 -34 36 0 33 21 58 76 92 17 10 18 12 3 27 -12 13 -21 15
-41 7 -31 -12 -38 -6 -38 30 0 31 25 53 73 65 26 6 28 9 22 41 -8 44 8 65 49
61 22 -2 35 -11 44 -30z"/>
</g>
</svg>
